# xmcd
#
# Track frame offsets:
#      150
#      13073
#      25991
#      41802
#      60243
#      76344
#      89880
#      104015
#      117954
#      132061
# 
# Disc length: 1942 seconds
#
# Revision: 1
# Processed by: cddbd v1.4PL0 Copyright (c) Steve Scherf et al.
#
# Submitted via: FreeRIP 1.21
#
DISCID=8207940a
DTITLE=Merle Haggard - I'm Always On A Mountain When I Fall
DYEAR=1978
DGENRE=country
TTITLE0=I'm Always On A Mountain When I Fall
TTITLE1=It's Been A Great Afternoon
TTITLE2=Love Me When You Can
TTITLE3=There Won't Be Another Now
TTITLE4=Don't You Ever Get Tired (Of Hurting Me)
TTITLE5=Life Of A Rodeo Cowboy
TTITLE6=There Ain't No Good Chain Gang
TTITLE7=The Dream
TTITLE8=The Immigrant
TTITLE9=Mama I've Got To Go To Memphis
EXTD=
EXTT0=
EXTT1=
EXTT2=
EXTT3=
EXTT4=
EXTT5=
EXTT6=
EXTT7=
EXTT8=
EXTT9=
PLAYORDER=
